<?xml version="1.0" encoding="UTF-8" standalone="no"?>
<!DOCTYPE svg PUBLIC "-//W3C//DTD SVG 1.1//EN"
 "http://www.w3.org/Graphics/SVG/1.1/DTD/svg11.dtd">
<!-- Generated by graphviz version 2.40.1 (20161225.0304)
 -->
<!-- Title: %0 Pages: 1 -->
<svg width="470pt" height="260pt"
 viewBox="0.00 0.00 469.60 260.00" xmlns="http://www.w3.org/2000/svg" xmlns:xlink="http://www.w3.org/1999/xlink">
<g id="graph0" class="graph" transform="scale(1 1) rotate(0) translate(4 256)">
<title>%0</title>
<polygon fill="#ffffff" stroke="transparent" points="-4,4 -4,-256 465.6038,-256 465.6038,4 -4,4"/>
<!-- program -->
<g id="node1" class="node">
<title>program</title>
<polygon fill="none" stroke="#000000" points="270.5316,-252 206.676,-252 206.676,-216 270.5316,-216 270.5316,-252"/>
<text text-anchor="middle" x="238.6038" y="-229.8" font-family="Times,serif" font-size="14.00" fill="#000000">program</text>
</g>
<!-- function -->
<g id="node2" class="node">
<title>function</title>
<polygon fill="none" stroke="#000000" points="269.7611,-180 207.4465,-180 207.4465,-144 269.7611,-144 269.7611,-180"/>
<text text-anchor="middle" x="238.6038" y="-157.8" font-family="Times,serif" font-size="14.00" fill="#000000">function</text>
</g>
<!-- program&#45;&gt;function -->
<g id="edge1" class="edge">
<title>program&#45;&gt;function</title>
<path fill="none" stroke="#000000" d="M238.6038,-215.8314C238.6038,-208.131 238.6038,-198.9743 238.6038,-190.4166"/>
<polygon fill="#000000" stroke="#000000" points="242.1039,-190.4132 238.6038,-180.4133 235.1039,-190.4133 242.1039,-190.4132"/>
</g>
<!-- Return_type -->
<g id="node3" class="node">
<title>Return_type</title>
<polygon fill="none" stroke="#000000" points="85.3117,-108 -.1041,-108 -.1041,-72 85.3117,-72 85.3117,-108"/>
<text text-anchor="middle" x="42.6038" y="-85.8" font-family="Times,serif" font-size="14.00" fill="#000000">Return_type</text>
</g>
<!-- function&#45;&gt;Return_type -->
<g id="edge2" class="edge">
<title>function&#45;&gt;Return_type</title>
<path fill="none" stroke="#000000" d="M207.113,-150.432C176.9446,-139.3497 130.8547,-122.4187 95.1268,-109.2942"/>
<polygon fill="#000000" stroke="#000000" points="95.9399,-105.8642 85.3463,-105.7013 93.5261,-112.4349 95.9399,-105.8642"/>
</g>
<!-- ( -->
<g id="node4" class="node">
<title>(</title>
<polygon fill="none" stroke="#000000" points="157.6038,-108 103.6038,-108 103.6038,-72 157.6038,-72 157.6038,-108"/>
<text text-anchor="middle" x="130.6038" y="-85.8" font-family="Times,serif" font-size="14.00" fill="#000000">(</text>
</g>
<!-- function&#45;&gt;( -->
<g id="edge3" class="edge">
<title>function&#45;&gt;(</title>
<path fill="none" stroke="#000000" d="M211.3508,-143.8314C197.6649,-134.7074 180.9123,-123.539 166.2211,-113.7449"/>
<polygon fill="#000000" stroke="#000000" points="168.11,-110.7977 157.848,-108.1628 164.2271,-116.6221 168.11,-110.7977"/>
</g>
<!-- ) -->
<g id="node5" class="node">
<title>)</title>
<polygon fill="none" stroke="#000000" points="229.6038,-108 175.6038,-108 175.6038,-72 229.6038,-72 229.6038,-108"/>
<text text-anchor="middle" x="202.6038" y="-85.8" font-family="Times,serif" font-size="14.00" fill="#000000">)</text>
</g>
<!-- function&#45;&gt;) -->
<g id="edge4" class="edge">
<title>function&#45;&gt;)</title>
<path fill="none" stroke="#000000" d="M229.5195,-143.8314C225.5423,-135.8771 220.7883,-126.369 216.3899,-117.5723"/>
<polygon fill="#000000" stroke="#000000" points="219.4131,-115.7923 211.8104,-108.4133 213.1521,-118.9228 219.4131,-115.7923"/>
</g>
<!-- { -->
<g id="node6" class="node">
<title>{</title>
<polygon fill="none" stroke="#000000" points="301.6038,-108 247.6038,-108 247.6038,-72 301.6038,-72 301.6038,-108"/>
<text text-anchor="middle" x="274.6038" y="-85.8" font-family="Times,serif" font-size="14.00" fill="#000000">{</text>
</g>
<!-- function&#45;&gt;{ -->
<g id="edge5" class="edge">
<title>function&#45;&gt;{</title>
<path fill="none" stroke="#000000" d="M247.6881,-143.8314C251.6653,-135.8771 256.4193,-126.369 260.8177,-117.5723"/>
<polygon fill="#000000" stroke="#000000" points="264.0555,-118.9228 265.3972,-108.4133 257.7945,-115.7923 264.0555,-118.9228"/>
</g>
<!-- statement -->
<g id="node7" class="node">
<title>statement</title>
<polygon fill="none" stroke="#000000" points="389.2555,-108 319.9521,-108 319.9521,-72 389.2555,-72 389.2555,-108"/>
<text text-anchor="middle" x="354.6038" y="-85.8" font-family="Times,serif" font-size="14.00" fill="#000000">statement</text>
</g>
<!-- function&#45;&gt;statement -->
<g id="edge6" class="edge">
<title>function&#45;&gt;statement</title>
<path fill="none" stroke="#000000" d="M267.8755,-143.8314C282.7126,-134.6221 300.9053,-123.3301 316.79,-113.4706"/>
<polygon fill="#000000" stroke="#000000" points="318.6908,-116.4102 325.3415,-108.1628 314.9993,-110.4628 318.6908,-116.4102"/>
</g>
<!-- } -->
<g id="node8" class="node">
<title>}</title>
<polygon fill="none" stroke="#000000" points="461.6038,-108 407.6038,-108 407.6038,-72 461.6038,-72 461.6038,-108"/>
<text text-anchor="middle" x="434.6038" y="-85.8" font-family="Times,serif" font-size="14.00" fill="#000000">}</text>
</g>
<!-- function&#45;&gt;} -->
<g id="edge7" class="edge">
<title>function&#45;&gt;}</title>
<path fill="none" stroke="#000000" d="M270.0466,-152.798C300.6824,-143.526 348.641,-128.2013 397.7609,-108.1014"/>
<polygon fill="#000000" stroke="#000000" points="399.3735,-111.2216 407.2682,-104.1559 396.6904,-104.7562 399.3735,-111.2216"/>
</g>
<!-- Return -->
<g id="node9" class="node">
<title>Return</title>
<polygon fill="none" stroke="#000000" points="308.7063,-36 254.5013,-36 254.5013,0 308.7063,0 308.7063,-36"/>
<text text-anchor="middle" x="281.6038" y="-13.8" font-family="Times,serif" font-size="14.00" fill="#000000">Return</text>
</g>
<!-- statement&#45;&gt;Return -->
<g id="edge8" class="edge">
<title>statement&#45;&gt;Return</title>
<path fill="none" stroke="#000000" d="M336.1828,-71.8314C327.4509,-63.219 316.8721,-52.7851 307.3615,-43.4048"/>
<polygon fill="#000000" stroke="#000000" points="309.5963,-40.6931 300.0189,-36.1628 304.6808,-45.6769 309.5963,-40.6931"/>
</g>
<!-- Integer -->
<g id="node10" class="node">
<title>Integer</title>
<polygon fill="none" stroke="#000000" points="382.246,-36 326.9616,-36 326.9616,0 382.246,0 382.246,-36"/>
<text text-anchor="middle" x="354.6038" y="-13.8" font-family="Times,serif" font-size="14.00" fill="#000000">Integer</text>
</g>
<!-- statement&#45;&gt;Integer -->
<g id="edge9" class="edge">
<title>statement&#45;&gt;Integer</title>
<path fill="none" stroke="#000000" d="M354.6038,-71.8314C354.6038,-64.131 354.6038,-54.9743 354.6038,-46.4166"/>
<polygon fill="#000000" stroke="#000000" points="358.1039,-46.4132 354.6038,-36.4133 351.1039,-46.4133 358.1039,-46.4132"/>
</g>
<!-- ; -->
<g id="node11" class="node">
<title>;</title>
<polygon fill="none" stroke="#000000" points="454.6038,-36 400.6038,-36 400.6038,0 454.6038,0 454.6038,-36"/>
<text text-anchor="middle" x="427.6038" y="-13.8" font-family="Times,serif" font-size="14.00" fill="#000000">;</text>
</g>
<!-- statement&#45;&gt;; -->
<g id="edge10" class="edge">
<title>statement&#45;&gt;;</title>
<path fill="none" stroke="#000000" d="M373.0248,-71.8314C381.7567,-63.219 392.3355,-52.7851 401.8461,-43.4048"/>
<polygon fill="#000000" stroke="#000000" points="404.5268,-45.6769 409.1887,-36.1628 399.6113,-40.6931 404.5268,-45.6769"/>
</g>
</g>
</svg>
